<svg width="188" height="198" viewBox="0 0 188 198" fill="none" xmlns="http://www.w3.org/2000/svg">
<path d="M178.105 81.0379H149.509C126.059 81.0379 106.962 61.941 106.962 38.4905V9.89474C106.962 4.45263 102.509 0 97.0674 0H55.1137C24.6379 0 0 19.7895 0 55.1137V142.781C0 178.105 24.6379 197.895 55.1137 197.895H132.886C163.362 197.895 188 178.105 188 142.781V90.9326C188 85.4905 183.547 81.0379 178.105 81.0379ZM89.3495 114.086C87.8653 115.571 85.9853 116.263 84.1053 116.263C82.2253 116.263 80.3453 115.571 78.8611 114.086L71.7368 106.962V148.421C71.7368 152.478 68.3726 155.842 64.3158 155.842C60.259 155.842 56.8947 152.478 56.8947 148.421V106.962L49.7705 114.086C46.9011 116.956 42.1516 116.956 39.2821 114.086C36.4126 111.217 36.4126 106.467 39.2821 103.598L59.0716 83.8084C59.7642 83.2147 60.4568 82.72 61.2484 82.3242C61.4463 82.2253 61.7432 82.1263 61.9411 82.0274C62.5347 81.8295 63.1284 81.7305 63.8211 81.6316H64.6126C65.4042 81.6316 66.1958 81.8295 66.9874 82.1263H67.1853C67.9768 82.4232 68.7684 83.0168 69.3621 83.6105C69.4611 83.7095 69.56 83.7095 69.56 83.8084L89.3495 103.598C92.2189 106.467 92.2189 111.217 89.3495 114.086Z" fill="#F5F5F5"/>
<path d="M147.725 67.388C157.125 67.4869 170.186 67.4869 181.367 67.4869C187.007 67.4869 189.976 60.8575 186.018 56.8996C171.77 42.5522 146.241 16.7269 131.597 2.08272C127.54 -1.97413 120.515 0.7964 120.515 6.4364V40.969C120.515 55.4154 132.784 67.388 147.725 67.388Z" fill="#F5F5F5"/>
</svg>
